<svg version="1.1" viewBox="0.0 0.0 216.0 216.0" fill="none" stroke="none" stroke-linecap="square" stroke-miterlimit="10" xmlns:xlink="http://www.w3.org/1999/xlink" xmlns="http://www.w3.org/2000/svg"><clipPath id="p.0"><path d="m0 0l216.0 0l0 216.0l-216.0 0l0 -216.0z" clip-rule="nonzero"/></clipPath><g clip-path="url(#p.0)"><path fill="#000000" fill-opacity="0.0" d="m0 0l216.0 0l0 216.0l-216.0 0z" fill-rule="evenodd"/><path fill="#8fbcbb" d="m23.891525 144.85748l0 0c2.9484177 -10.984802 14.243534 -17.499596 25.228348 -14.551178l0 0c5.275093 1.4158783 9.771675 4.869293 12.500553 9.600525c2.7288704 4.7312317 3.4665108 10.352737 2.0506287 15.627823l0 0c-2.9484177 10.9848175 -14.243534 17.499603 -25.228348 14.551178l0 0c-10.984814 -2.94841 -17.4996 -14.24353 -14.551182 -25.228348z" fill-rule="evenodd"/><path stroke="#8fbcbb" stroke-width="5.690288713910761" stroke-linejoin="round" stroke-linecap="butt" d="m23.891525 144.85748l0 0c2.9484177 -10.984802 14.243534 -17.499596 25.228348 -14.551178l0 0c5.275093 1.4158783 9.771675 4.869293 12.500553 9.600525c2.7288704 4.7312317 3.4665108 10.352737 2.0506287 15.627823l0 0c-2.9484177 10.9848175 -14.243534 17.499603 -25.228348 14.551178l0 0c-10.984814 -2.94841 -17.4996 -14.24353 -14.551182 -25.228348z" fill-rule="evenodd"/><path fill="#8fbcbb" d="m152.3281 179.27164l0 0c2.94841 -10.984802 14.24353 -17.499588 25.228348 -14.551178l0 0c5.2750854 1.4158783 9.7716675 4.869293 12.500549 9.600525c2.7288818 4.7312317 3.466507 10.352737 2.0506287 15.627823l0 0c-2.94841 10.9848175 -14.24353 17.499603 -25.228348 14.551178l0 0c-10.9848175 -2.94841 -17.499603 -14.24353 -14.551178 -25.228348z" fill-rule="evenodd"/><path stroke="#8fbcbb" stroke-width="5.690288713910761" stroke-linejoin="round" stroke-linecap="butt" d="m152.3281 179.27164l0 0c2.94841 -10.984802 14.24353 -17.499588 25.228348 -14.551178l0 0c5.2750854 1.4158783 9.7716675 4.869293 12.500549 9.600525c2.7288818 4.7312317 3.466507 10.352737 2.0506287 15.627823l0 0c-2.94841 10.9848175 -14.24353 17.499603 -25.228348 14.551178l0 0c-10.9848175 -2.94841 -17.499603 -14.24353 -14.551178 -25.228348z" fill-rule="evenodd"/><path fill="#8fbcbb" d="m98.64017 122.76243l0 0c2.9484177 -10.9848175 14.243538 -17.499603 25.228348 -14.551186l0 0c5.2751007 1.4158783 9.771683 4.869293 12.500549 9.600525c2.7288818 4.7312317 3.466507 10.352722 2.0506287 15.627823l0 0c-2.94841 10.9848175 -14.24353 17.499603 -25.22834 14.551178l0 0c-10.9848175 -2.94841 -17.499603 -14.24353 -14.551186 -25.22834z" fill-rule="evenodd"/><path stroke="#8fbcbb" stroke-width="5.690288713910761" stroke-linejoin="round" stroke-linecap="butt" d="m98.64017 122.76243l0 0c2.9484177 -10.9848175 14.243538 -17.499603 25.228348 -14.551186l0 0c5.2751007 1.4158783 9.771683 4.869293 12.500549 9.600525c2.7288818 4.7312317 3.466507 10.352722 2.0506287 15.627823l0 0c-2.94841 10.9848175 -14.24353 17.499603 -25.22834 14.551178l0 0c-10.9848175 -2.94841 -17.499603 -14.24353 -14.551186 -25.22834z" fill-rule="evenodd"/><path fill="#8fbcbb" d="m129.375 26.05001l0 0c2.94841 -10.984813 14.24353 -17.4996 25.228348 -14.551181l0 0c5.2750854 1.4158802 9.7716675 4.8692923 12.500549 9.600526c2.7288666 4.7312317 3.466507 10.352728 2.0506287 15.627821l0 0c-2.9484253 10.984814 -14.24353 17.4996 -25.228348 14.551182l0 0c-10.9848175 -2.9484177 -17.499603 -14.243534 -14.551178 -25.228348z" fill-rule="evenodd"/><path stroke="#8fbcbb" stroke-width="5.690288713910761" stroke-linejoin="round" stroke-linecap="butt" d="m129.375 26.05001l0 0c2.94841 -10.984813 14.24353 -17.4996 25.228348 -14.551181l0 0c5.2750854 1.4158802 9.7716675 4.8692923 12.500549 9.600526c2.7288666 4.7312317 3.466507 10.352728 2.0506287 15.627821l0 0c-2.9484253 10.984814 -14.24353 17.4996 -25.228348 14.551182l0 0c-10.9848175 -2.9484177 -17.499603 -14.243534 -14.551178 -25.228348z" fill-rule="evenodd"/><path fill="#000000" fill-opacity="0.0" d="m49.119873 130.3063l82.29921 -88.62992" fill-rule="evenodd"/><path stroke="#8fbcbb" stroke-width="4.0" stroke-linejoin="round" stroke-linecap="butt" d="m58.44773 120.26092l72.97135 -78.58453" fill-rule="evenodd"/><path fill="#8fbcbb" stroke="#8fbcbb" stroke-width="4.0" stroke-linecap="butt" d="m58.44773 120.26092l-0.23545074 -6.3572464l-5.1133957 12.117546l11.706093 -5.9957504z" fill-rule="evenodd"/><path fill="#000000" fill-opacity="0.0" d="m61.620426 139.90683l37.00787 -17.133858" fill-rule="evenodd"/><path stroke="#8fbcbb" stroke-width="4.0" stroke-linejoin="round" stroke-linecap="butt" d="m61.620422 139.90683l24.568085 -11.374496" fill-rule="evenodd"/><path fill="#8fbcbb" stroke="#8fbcbb" stroke-width="4.0" stroke-linecap="butt" d="m86.18851 128.53233l-2.1921616 5.9719696l9.325478 -9.274544l-13.105293 1.1104202z" fill-rule="evenodd"/><path fill="#000000" fill-opacity="0.0" d="m161.92862 166.77109l-23.496063 -33.32283" fill-rule="evenodd"/><path stroke="#8fbcbb" stroke-width="4.0" stroke-linejoin="round" stroke-linecap="butt" d="m161.92862 166.77109l-15.596512 -22.119446" fill-rule="evenodd"/><path fill="#8fbcbb" stroke="#8fbcbb" stroke-width="4.0" stroke-linecap="butt" d="m146.3321 144.65164l6.2685547 1.084137l-10.79837 -7.5084686l3.4456787 12.692871z" fill-rule="evenodd"/><path fill="#000000" fill-opacity="0.0" d="m177.55644 164.72046l-18.015747 -115.49606" fill-rule="evenodd"/><path stroke="#8fbcbb" stroke-width="4.0" stroke-linejoin="round" stroke-linecap="butt" d="m175.44366 151.1759l-15.902969 -101.95151" fill-rule="evenodd"/><path fill="#8fbcbb" stroke="#8fbcbb" stroke-width="4.0" stroke-linecap="butt" d="m175.44368 151.1759l-5.1378937 -3.751297l6.3493958 11.518112l2.5397797 -12.904694z" fill-rule="evenodd"/></g></svg>