<svg version="1.1" viewBox="0.0 0.0 651.8792650918635 221.0524934383202" fill="none" stroke="none" stroke-linecap="square" stroke-miterlimit="10" xmlns:xlink="http://www.w3.org/1999/xlink" xmlns="http://www.w3.org/2000/svg"><clipPath id="p.0"><path d="m0 0l651.8793 0l0 221.05249l-651.8793 0l0 -221.05249z" clip-rule="nonzero"/></clipPath><g clip-path="url(#p.0)"><path fill="#000000" fill-opacity="0.0" d="m0 0l651.8793 0l0 221.05249l-651.8793 0z" fill-rule="evenodd"/><path fill="#8fbcbb" d="m455.92566 147.38504l0 0c2.9483948 -10.984802 14.24353 -17.499588 25.228333 -14.551178l0 0c5.2750854 1.4158783 9.7716675 4.869293 12.500549 9.600525c2.7288818 4.7312317 3.4665222 10.352737 2.0506287 15.627823l0 0c-2.9484253 10.9848175 -14.24353 17.499603 -25.228333 14.551178l0 0c-10.984833 -2.94841 -17.499603 -14.24353 -14.551178 -25.228348z" fill-rule="evenodd"/><path stroke="#8fbcbb" stroke-width="5.690288713910761" stroke-linejoin="round" stroke-linecap="butt" d="m455.92566 147.38504l0 0c2.9483948 -10.984802 14.24353 -17.499588 25.228333 -14.551178l0 0c5.2750854 1.4158783 9.7716675 4.869293 12.500549 9.600525c2.7288818 4.7312317 3.4665222 10.352737 2.0506287 15.627823l0 0c-2.9484253 10.9848175 -14.24353 17.499603 -25.228333 14.551178l0 0c-10.984833 -2.94841 -17.499603 -14.24353 -14.551178 -25.228348z" fill-rule="evenodd"/><path fill="#8fbcbb" d="m584.36224 181.7992l0 0c2.9483643 -10.984802 14.24353 -17.499588 25.228333 -14.551178l0 0c5.2750854 1.4158783 9.7716675 4.869293 12.500549 9.600525c2.7288818 4.7312317 3.4664917 10.352737 2.0505981 15.627823l0 0c-2.9484253 10.9848175 -14.24353 17.499603 -25.228333 14.551178l0 0c-10.984802 -2.94841 -17.499573 -14.24353 -14.551147 -25.228348z" fill-rule="evenodd"/><path stroke="#8fbcbb" stroke-width="5.690288713910761" stroke-linejoin="round" stroke-linecap="butt" d="m584.36224 181.7992l0 0c2.9483643 -10.984802 14.24353 -17.499588 25.228333 -14.551178l0 0c5.2750854 1.4158783 9.7716675 4.869293 12.500549 9.600525c2.7288818 4.7312317 3.4664917 10.352737 2.0505981 15.627823l0 0c-2.9484253 10.9848175 -14.24353 17.499603 -25.228333 14.551178l0 0c-10.984802 -2.94841 -17.499573 -14.24353 -14.551147 -25.228348z" fill-rule="evenodd"/><path fill="#8fbcbb" d="m530.6743 125.289986l0 0c2.9483643 -10.9848175 14.24353 -17.499603 25.228333 -14.551186l0 0c5.2750854 1.4158859 9.7716675 4.869293 12.500549 9.600525c2.7288818 4.7312393 3.4664917 10.352737 2.0505981 15.627823l0 0c-2.9484253 10.9848175 -14.24353 17.499603 -25.228333 14.551178l0 0c-10.984802 -2.94841 -17.499573 -14.24353 -14.551147 -25.22834z" fill-rule="evenodd"/><path stroke="#8fbcbb" stroke-width="5.690288713910761" stroke-linejoin="round" stroke-linecap="butt" d="m530.6743 125.289986l0 0c2.9483643 -10.9848175 14.24353 -17.499603 25.228333 -14.551186l0 0c5.2750854 1.4158859 9.7716675 4.869293 12.500549 9.600525c2.7288818 4.7312393 3.4664917 10.352737 2.0505981 15.627823l0 0c-2.9484253 10.9848175 -14.24353 17.499603 -25.228333 14.551178l0 0c-10.984802 -2.94841 -17.499573 -14.24353 -14.551147 -25.22834z" fill-rule="evenodd"/><path fill="#8fbcbb" d="m561.4091 28.57757l0 0c2.9484253 -10.984814 14.24353 -17.4996 25.228333 -14.551181l0 0c5.2750854 1.4158802 9.7716675 4.8692923 12.500549 9.600524c2.7288818 4.7312336 3.4665527 10.352728 2.0506592 15.627821l0 0c-2.9484253 10.984814 -14.24353 17.4996 -25.228333 14.551182l0 0c-10.984863 -2.9484177 -17.499634 -14.243534 -14.5512085 -25.228346z" fill-rule="evenodd"/><path stroke="#8fbcbb" stroke-width="5.690288713910761" stroke-linejoin="round" stroke-linecap="butt" d="m561.4091 28.57757l0 0c2.9484253 -10.984814 14.24353 -17.4996 25.228333 -14.551181l0 0c5.2750854 1.4158802 9.7716675 4.8692923 12.500549 9.600524c2.7288818 4.7312336 3.4665527 10.352728 2.0506592 15.627821l0 0c-2.9484253 10.984814 -14.24353 17.4996 -25.228333 14.551182l0 0c-10.984863 -2.9484177 -17.499634 -14.243534 -14.5512085 -25.228346z" fill-rule="evenodd"/><path fill="#000000" fill-opacity="0.0" d="m481.154 132.83386l82.299194 -88.62991" fill-rule="evenodd"/><path stroke="#8fbcbb" stroke-width="4.0" stroke-linejoin="round" stroke-linecap="butt" d="m490.48187 122.788475l72.97131 -78.58453" fill-rule="evenodd"/><path fill="#8fbcbb" stroke="#8fbcbb" stroke-width="4.0" stroke-linecap="butt" d="m490.48184 122.78848l-0.23544312 -6.3572464l-5.1134033 12.117546l11.706116 -5.995758z" fill-rule="evenodd"/><path fill="#000000" fill-opacity="0.0" d="m493.65454 142.43439l37.007874 -17.133858" fill-rule="evenodd"/><path stroke="#8fbcbb" stroke-width="4.0" stroke-linejoin="round" stroke-linecap="butt" d="m493.65454 142.43439l24.568054 -11.374496" fill-rule="evenodd"/><path fill="#8fbcbb" stroke="#8fbcbb" stroke-width="4.0" stroke-linecap="butt" d="m518.2226 131.05989l-2.1921387 5.971985l9.325439 -9.274551l-13.105286 1.1104126z" fill-rule="evenodd"/><path fill="#000000" fill-opacity="0.0" d="m593.96277 169.29865l-23.496094 -33.32283" fill-rule="evenodd"/><path stroke="#8fbcbb" stroke-width="4.0" stroke-linejoin="round" stroke-linecap="butt" d="m593.9627 169.29865l-15.596497 -22.119446" fill-rule="evenodd"/><path fill="#8fbcbb" stroke="#8fbcbb" stroke-width="4.0" stroke-linecap="butt" d="m578.3662 147.1792l6.2685547 1.084137l-10.798401 -7.5084686l3.4456787 12.692871z" fill-rule="evenodd"/><path fill="#000000" fill-opacity="0.0" d="m609.5906 167.24802l-18.015747 -115.49606" fill-rule="evenodd"/><path stroke="#8fbcbb" stroke-width="4.0" stroke-linejoin="round" stroke-linecap="butt" d="m607.4778 153.70346l-15.902954 -101.95151" fill-rule="evenodd"/><path fill="#8fbcbb" stroke="#8fbcbb" stroke-width="4.0" stroke-linecap="butt" d="m607.4778 153.70346l-5.1378784 -3.751297l6.3494263 11.518112l2.539734 -12.904694z" fill-rule="evenodd"/><path fill="#000000" fill-opacity="0.0" d="m10.115485 23.266405l425.32285 0l0 174.51968l-425.32285 0z" fill-rule="evenodd"/><path fill="#8fbcbb" d="m22.240486 155.14641l32.5 -93.125l21.1875 0l33.25 93.125l-18.3125 0l-16.5625 -48.375q-2.4375 -7.5 -5.0625 -16.96875q-2.625 -9.46875 -5.8125 -21.53125l3.5 0q-3.125 12.1875 -5.65625 21.71875q-2.53125 9.53125 -4.78125 16.78125l-16.0 48.375l-18.25 0zm18.9375 -23.0625l0 -13.4375l49.0625 0l0 13.4375l-49.0625 0zm79.6875 23.0625l0 -69.875l15.249992 0l0.625 16.8125l-1.1875 0q1.5 -6.25 4.65625 -10.1875q3.15625 -3.9375 7.375 -5.84375q4.21875 -1.90625 8.84375 -1.90625q7.5625 0 12.21875 4.75q4.65625 4.75 6.59375 14.0l-1.9375 0q1.4375 -6.25 4.90625 -10.40625q3.46875 -4.15625 8.25 -6.25q4.78125 -2.09375 10.21875 -2.09375q6.3125 0 11.3125 2.75q5.0 2.75 7.9375 8.03125q2.9375 5.28125 2.9375 13.09375l0 47.125l-16.25 0l0 -44.625q0 -6.5 -3.5625 -9.5q-3.5625 -3.0 -8.5625 -3.0q-3.875 0 -6.75 1.6875q-2.875 1.6875 -4.40625 4.65625q-1.53125 2.96875 -1.53125 6.90625l0 43.875l-15.875 0l0 -45.375q0 -5.3125 -3.3125 -8.53125q-3.3125 -3.21875 -8.5 -3.21875q-3.5625 0 -6.53125 1.625q-2.96875 1.625 -4.71875 4.8125q-1.75 3.1875 -1.75 7.875l0 42.8125l-16.249992 0zm115.24999 0l0 -69.875l16.25 0l0 69.875l-16.25 0zm8.125 -79.75q-3.875 0 -6.65625 -2.625q-2.78125 -2.625 -2.78125 -6.25q0 -3.75 2.78125 -6.34375q2.78125 -2.59375 6.65625 -2.59375q3.9375 0 6.71875 2.59375q2.78125 2.59375 2.78125 6.28125q0 3.6875 -2.78125 6.3125q-2.78125 2.625 -6.71875 2.625zm55.5 107.375q-8.375 0 -14.59375 -2.125q-6.21875 -2.125 -10.1875 -5.78125q-3.96875 -3.65625 -5.71875 -8.28125l13.75 -4.9375q1.125 1.9375 3.09375 4.0q1.96875 2.0625 5.25 3.40625q3.28125 1.34375 8.34375 1.34375q7.5625 0 12.125 -3.53125q4.5625 -3.53125 4.5625 -11.03125l0 -13.1875l-1.375 0q-1.1875 2.5 -3.5 5.15625q-2.3125 2.65625 -6.21875 4.46875q-3.90625 1.8125 -9.96875 1.8125q-8.0 0 -14.53125 -3.78125q-6.53125 -3.78125 -10.375 -11.34375q-3.84375 -7.5625 -3.84375 -18.9375q0 -11.5 3.875 -19.4375q3.875 -7.9375 10.40625 -12.0625q6.53125 -4.125 14.59375 -4.125q6.1875 0 10.1875 2.0625q4.0 2.0625 6.375 4.96875q2.375 2.90625 3.625 5.40625l0.875 0l0 -11.5625l15.9375 0l0 70.0625q0 9.3125 -4.25 15.40625q-4.25 6.09375 -11.625 9.0625q-7.375 2.96875 -16.8125 2.96875zm0.125 -41.5q5.3125 0 9.0 -2.53125q3.6875 -2.53125 5.625 -7.34375q1.9375 -4.8125 1.9375 -11.5q0 -6.625 -1.90625 -11.59375q-1.90625 -4.96875 -5.59375 -7.75q-3.6875 -2.78125 -9.0625 -2.78125q-5.5 0 -9.21875 2.90625q-3.71875 2.90625 -5.59375 7.875q-1.875 4.96875 -1.875 11.34375q0 6.4375 1.90625 11.25q1.90625 4.8125 5.625 7.46875q3.71875 2.65625 9.15625 2.65625zm80.125 15.3125q-10.1875 0 -17.6875 -4.53125q-7.5 -4.53125 -11.59375 -12.625q-4.09375 -8.09375 -4.09375 -18.84375q0 -10.875 4.09375 -19.03125q4.09375 -8.15625 11.59375 -12.65625q7.5 -4.5 17.6875 -4.5q10.25 0 17.75 4.5q7.5 4.5 11.59375 12.65625q4.09375 8.15625 4.09375 19.03125q0 10.75 -4.09375 18.84375q-4.09375 8.09375 -11.59375 12.625q-7.5 4.53125 -17.75 4.53125zm0 -13.1875q5.6875 0 9.46875 -3.0625q3.78125 -3.0625 5.625 -8.25q1.84375 -5.1875 1.84375 -11.5625q0 -6.4375 -1.84375 -11.625q-1.84375 -5.1875 -5.625 -8.25q-3.78125 -3.0625 -9.46875 -3.0625q-5.6875 0 -9.40625 3.0625q-3.71875 3.0625 -5.5625 8.21875q-1.84375 5.15625 -1.84375 11.65625q0 6.375 1.84375 11.5625q1.84375 5.1875 5.5625 8.25q3.71875 3.0625 9.40625 3.0625z" fill-rule="nonzero"/></g></svg>